<svg id="Layer_1" data-name="Layer 1" xmlns="http://www.w3.org/2000/svg" viewBox="0 0 125.31 118.53"><defs><style>.cls-1{fill:#89d5d1;stroke:#81d0c9;}.cls-1,.cls-3,.cls-5{stroke-miterlimit:10;}.cls-2{font-size:28px;fill:#3ac7c1;letter-spacing:-1px;}.cls-2,.cls-4,.cls-6,.cls-7{font-family:Helvetica;font-weight:700;}.cls-3{fill:#d4182d;stroke:#c4182d;}.cls-4{font-size:22px;fill:#a9182d;}.cls-5{fill:#dbd8e7;stroke:#d6d4df;}.cls-6{font-size:24px;}.cls-6,.cls-7{fill:#c2c2c2;}.cls-7{font-size:23px;}</style></defs><title>gamecubeButtons</title><circle class="cls-1" cx="57.25" cy="65.16" r="28.75"/><text class="cls-2" transform="translate(47.13 72.79)">A</text><circle class="cls-3" cx="16" cy="100.58" r="15.5"/><text class="cls-4" transform="translate(8.67 107.95)">B</text><path class="cls-5" d="M439.26,154.33c-2,2-3.58,1.24-10.33,3a42.9,42.9,0,0,0-11.67,4.33c-6.94,4.14-6.61,8.24-11.93,9.67-3.41.91-8.13,0.45-10.74-2.33-5.28-5.64,1.1-17.63,1.67-18.67,5.37-9.8,15.4-13.15,18.33-14a33.52,33.52,0,0,1,21,1,10.6,10.6,0,0,1,5.67,5.67C442.87,146.78,442,151.67,439.26,154.33Z" transform="translate(-376.5 -134.59)"/><path class="cls-5" d="M477.15,214.52c-1.33-2.51-.19-3.79,0-10.76,0.12-4.3.22-8.13-.91-12.41-1.72-6.49-4.36-6.8-4.9-11.83-0.38-3.53.23-9.51,4.17-12,5.27-3.3,13.11,1.82,14.2,2.53,11.45,7.48,11.59,23.48,11.61,25.77a36.29,36.29,0,0,1-6.81,19.89,10.6,10.6,0,0,1-7,3.87C483.41,220.09,478.95,217.91,477.15,214.52Z" transform="translate(-376.5 -134.59)"/><text class="cls-6" transform="translate(103 66.13)">X</text><text class="cls-7" transform="translate(33 23.12)">Y</text></svg>