<svg id="Layer_1" data-name="Layer 1" xmlns="http://www.w3.org/2000/svg" xmlns:xlink="http://www.w3.org/1999/xlink" viewBox="0 0 188.1 188.1"><defs><style>.cls-1,.cls-2,.cls-3,.cls-4{stroke:#000;stroke-miterlimit:10;}.cls-1{fill:url(#linear-gradient);}.cls-2{fill:url(#linear-gradient-2);}.cls-3{fill:url(#linear-gradient-3);}.cls-4{fill:url(#linear-gradient-4);}.cls-5{fill:url(#linear-gradient-5);}.cls-6{fill:url(#linear-gradient-6);}.cls-7{font-size:56px;font-family:Myriad Pro;font-weight:700;}.cls-8{fill:url(#linear-gradient-7);}.cls-9{fill:url(#linear-gradient-8);}</style><linearGradient id="linear-gradient" x1="62.87" y1="31.68" x2="125.23" y2="31.68" gradientUnits="userSpaceOnUse"><stop offset="0" stop-color="#2b2b2b"/><stop offset="0.13" stop-color="#3d3b3d"/><stop offset="0.83"/><stop offset="0.94"/></linearGradient><linearGradient id="linear-gradient-2" x1="125.23" y1="94.05" x2="187.6" y2="94.05" gradientUnits="userSpaceOnUse"><stop offset="0" stop-color="#161616"/><stop offset="0.24" stop-color="#363536"/><stop offset="0.57" stop-color="#2b292a"/><stop offset="1"/></linearGradient><linearGradient id="linear-gradient-3" x1="62.87" y1="156.41" x2="125.23" y2="156.41" gradientUnits="userSpaceOnUse"><stop offset="0" stop-color="#171717"/><stop offset="0.2" stop-color="#353435"/><stop offset="0.45" stop-color="#2d2b2c"/><stop offset="0.67" stop-color="#2c2a2b"/><stop offset="1"/></linearGradient><linearGradient id="linear-gradient-4" x1="0.5" y1="94.05" x2="62.87" y2="94.05" gradientUnits="userSpaceOnUse"><stop offset="0" stop-color="#2b2b2b"/><stop offset="0.1" stop-color="#403f41"/><stop offset="0.59" stop-color="#242021"/><stop offset="0.8"/><stop offset="1"/></linearGradient><linearGradient id="linear-gradient-5" x1="403.57" y1="269.83" x2="434.6" y2="269.83" gradientUnits="userSpaceOnUse"><stop offset="0" stop-color="#1b87c8"/><stop offset="0.25" stop-color="#1b87c8"/><stop offset="0.52" stop-color="#1980c1"/><stop offset="0.99" stop-color="#219cd1"/></linearGradient><linearGradient id="linear-gradient-6" x1="465.4" y1="208.49" x2="496.76" y2="208.49" gradientUnits="userSpaceOnUse"><stop offset="0" stop-color="#f2cf00"/><stop offset="0.21" stop-color="#f3cf09"/><stop offset="0.55" stop-color="#f5cf23"/><stop offset="0.57" stop-color="#f5cf24"/><stop offset="0.87" stop-color="#f5cf24"/><stop offset="0.99" stop-color="#fbe471"/></linearGradient><linearGradient id="linear-gradient-7" x1="532.09" y1="269.88" x2="558.19" y2="269.88" gradientUnits="userSpaceOnUse"><stop offset="0" stop-color="#c91d1e"/><stop offset="0.57" stop-color="#c91d1e"/><stop offset="0.87" stop-color="#d63932"/><stop offset="0.99" stop-color="#d45449"/></linearGradient><linearGradient id="linear-gradient-8" x1="464.63" y1="330.83" x2="497.78" y2="330.83" gradientUnits="userSpaceOnUse"><stop offset="0" stop-color="#529e39"/><stop offset="0.57" stop-color="#4da233"/><stop offset="0.87" stop-color="#8ac15c"/><stop offset="0.99" stop-color="#80b95d"/></linearGradient></defs><title>xboxOneButtons</title><circle class="cls-1" cx="94.05" cy="31.68" r="31.18"/><circle class="cls-2" cx="156.41" cy="94.05" r="31.18"/><circle class="cls-3" cx="94.05" cy="156.41" r="31.18"/><circle class="cls-4" cx="31.68" cy="94.05" r="31.18"/><path class="cls-5" d="M426.64,288.7l-4.09-7.5c-1.62-2.91-2.69-4.93-3.75-7.11h-0.17c-0.9,2.18-1.9,4.2-3.42,7.11l-3.75,7.5h-7.9l11.2-19.1L404,251h7.9l4.09,7.78c1.23,2.35,2.13,4.2,3.14,6.33h0.11c1-2.35,1.79-4,3-6.33l4-7.78h7.9l-11,18.42L434.6,288.7h-8Z" transform="translate(-386.77 -176.5)"/><path class="cls-6" d="M477.33,227.37V211.63l-11.93-22h7.84l4.54,9.69c1.29,2.8,2.24,4.93,3.25,7.5h0.11c1-2.41,2-4.76,3.3-7.5l4.54-9.69h7.78l-12.54,21.84v15.9h-6.89Z" transform="translate(-386.77 -176.5)"/><text class="cls-7" transform="translate(141.35 112.2)">B</text><path class="cls-8" d="M532.09,251.46a57.56,57.56,0,0,1,10-.78c5.1,0,8.23.62,10.81,2.41a8,8,0,0,1,3.92,7.06c0,3.47-2.18,6.66-6.27,8.18v0.11c4,1,7.62,4.14,7.62,9.35a9.8,9.8,0,0,1-3.64,7.78c-2.69,2.35-7.11,3.53-14,3.53a66.83,66.83,0,0,1-8.46-.5V251.46Zm6.83,14.9h3.53c4.76,0,7.45-2.24,7.45-5.43,0-3.53-2.69-5.15-7.06-5.15a18.75,18.75,0,0,0-3.92.28v10.3Zm0,17.36a30.47,30.47,0,0,0,3.64.17c4.42,0,8.34-1.68,8.34-6.33,0-4.37-3.81-6.16-8.57-6.16h-3.42v12.32Z" transform="translate(-386.77 -176.5)"/><text class="cls-7" transform="translate(76.68 173.2)">A</text><path class="cls-9" d="M475,339l-3.25,10.7h-7.11L476.72,312h8.79l12.26,37.74h-7.39L487,339H475Zm10.81-5.21-3-9.3c-0.73-2.3-1.34-4.87-1.9-7.06h-0.11c-0.56,2.18-1.12,4.82-1.79,7.06l-2.91,9.3h9.69Z" transform="translate(-386.77 -176.5)"/></svg>